<?xml version="1.0" encoding="UTF-8" standalone="no"?><svg xmlns="http://www.w3.org/2000/svg" xmlns:xlink="http://www.w3.org/1999/xlink" contentScriptType="application/ecmascript" contentStyleType="text/css" height="252px" preserveAspectRatio="none" style="width:357px;height:252px;" version="1.1" viewBox="0 0 357 252" width="357px" zoomAndPan="magnify"><defs><filter height="300%" id="f12rqjk5tgca7s" width="300%" x="-1" y="-1"><feGaussianBlur result="blurOut" stdDeviation="2.0"/><feColorMatrix in="blurOut" result="blurOut2" type="matrix" values="0 0 0 0 0 0 0 0 0 0 0 0 0 0 0 0 0 0 .4 0"/><feOffset dx="4.0" dy="4.0" in="blurOut2" result="blurOut3"/><feBlend in="SourceGraphic" in2="blurOut3" mode="normal"/></filter></defs><g><!--cluster Ui--><polygon fill="#FFFFFF" filter="url(#f12rqjk5tgca7s)" points="227.5,24.5,248.5,24.5,255.5,46.7969,335.5,46.7969,335.5,123.5,227.5,123.5,227.5,24.5" style="stroke: #000000; stroke-width: 1.5;"/><line style="stroke: #000000; stroke-width: 1.5;" x1="227.5" x2="255.5" y1="46.7969" y2="46.7969"/><text fill="#000000" font-family="sans-serif" font-size="14" font-weight="bold" lengthAdjust="spacingAndGlyphs" textLength="15" x="231.5" y="39.4951">Ui</text><!--class Ui.Widget--><rect fill="#FEFECE" filter="url(#f12rqjk5tgca7s)" height="48" id="Ui.Widget" style="stroke: #A80036; stroke-width: 1.5;" width="75" x="244" y="59.5"/><ellipse cx="259" cy="75.5" fill="#ADD1B2" rx="11" ry="11" style="stroke: #A80036; stroke-width: 1.0;"/><path d="M261.3438,71.1719 L261.5156,71.25 C261.7344,70.9375 261.9375,70.8438 262.2344,70.8438 C262.5313,70.8438 262.8125,70.9844 262.9688,71.25 C263.0625,71.4063 263.0781,71.5313 263.0781,71.9688 L263.0781,73.3906 C263.0781,73.8125 263.0469,74 262.9375,74.1563 C262.7656,74.375 262.5,74.5156 262.2344,74.5156 C262.0156,74.5156 261.7813,74.4063 261.6406,74.2656 C261.5,74.1406 261.4688,74.0156 261.4063,73.6094 C261.3125,73.2031 261.1406,72.9844 260.6563,72.7031 C260.1875,72.4531 259.5781,72.2969 259,72.2969 C257.2656,72.2969 256.0156,73.6094 256.0156,75.3906 L256.0156,76.4844 C256.0156,78.1875 257.3125,79.2813 259.3594,79.2813 C260.125,79.2813 260.8125,79.1563 261.2344,78.8906 C261.4219,78.7969 261.4219,78.7969 261.875,78.3125 C262.0625,78.125 262.2656,78.0469 262.4844,78.0469 C262.9531,78.0469 263.3438,78.4375 263.3438,78.8906 C263.3438,79.2813 263.0156,79.7344 262.4375,80.1406 C261.6875,80.6875 260.5313,80.9844 259.3125,80.9844 C256.4219,80.9844 254.3125,79.0938 254.3125,76.5156 L254.3125,75.3906 C254.3125,72.6719 256.3125,70.5938 258.9375,70.5938 C259.8125,70.5938 260.4063,70.7344 261.3438,71.1719 Z "/><text fill="#000000" font-family="sans-serif" font-size="12" lengthAdjust="spacingAndGlyphs" textLength="43" x="273" y="79.6543">Widget</text><line style="stroke: #A80036; stroke-width: 1.5;" x1="245" x2="318" y1="91.5" y2="91.5"/><line style="stroke: #A80036; stroke-width: 1.5;" x1="245" x2="318" y1="99.5" y2="99.5"/><!--class Widget--><rect fill="#FEFECE" filter="url(#f12rqjk5tgca7s)" height="99.2188" id="Widget" style="stroke: #A80036; stroke-width: 1.5;" width="203" x="6" y="34"/><ellipse cx="81.75" cy="50" fill="#ADD1B2" rx="11" ry="11" style="stroke: #A80036; stroke-width: 1.0;"/><path d="M84.0938,45.6719 L84.2656,45.75 C84.4844,45.4375 84.6875,45.3438 84.9844,45.3438 C85.2813,45.3438 85.5625,45.4844 85.7188,45.75 C85.8125,45.9063 85.8281,46.0313 85.8281,46.4688 L85.8281,47.8906 C85.8281,48.3125 85.7969,48.5 85.6875,48.6563 C85.5156,48.875 85.25,49.0156 84.9844,49.0156 C84.7656,49.0156 84.5313,48.9063 84.3906,48.7656 C84.25,48.6406 84.2188,48.5156 84.1563,48.1094 C84.0625,47.7031 83.8906,47.4844 83.4063,47.2031 C82.9375,46.9531 82.3281,46.7969 81.75,46.7969 C80.0156,46.7969 78.7656,48.1094 78.7656,49.8906 L78.7656,50.9844 C78.7656,52.6875 80.0625,53.7813 82.1094,53.7813 C82.875,53.7813 83.5625,53.6563 83.9844,53.3906 C84.1719,53.2969 84.1719,53.2969 84.625,52.8125 C84.8125,52.625 85.0156,52.5469 85.2344,52.5469 C85.7031,52.5469 86.0938,52.9375 86.0938,53.3906 C86.0938,53.7813 85.7656,54.2344 85.1875,54.6406 C84.4375,55.1875 83.2813,55.4844 82.0625,55.4844 C79.1719,55.4844 77.0625,53.5938 77.0625,51.0156 L77.0625,49.8906 C77.0625,47.1719 79.0625,45.0938 81.6875,45.0938 C82.5625,45.0938 83.1563,45.2344 84.0938,45.6719 Z "/><text fill="#000000" font-family="sans-serif" font-size="12" lengthAdjust="spacingAndGlyphs" textLength="43" x="102.25" y="54.1543">Widget</text><line style="stroke: #A80036; stroke-width: 1.5;" x1="7" x2="208" y1="66" y2="66"/><text fill="#000000" font-family="sans-serif" font-size="11" lengthAdjust="spacingAndGlyphs" textLength="37" x="12" y="80.2104">public:</text><text fill="#000000" font-family="sans-serif" font-size="11" lengthAdjust="spacingAndGlyphs" textLength="43" x="12" y="93.0151">private:</text><text fill="#000000" font-family="sans-serif" font-size="11" lengthAdjust="spacingAndGlyphs" textLength="76" x="12" y="105.8198">Ui::Widget *ui</text><line style="stroke: #A80036; stroke-width: 1.5;" x1="7" x2="208" y1="112.4141" y2="112.4141"/><text fill="#000000" font-family="sans-serif" font-size="11" lengthAdjust="spacingAndGlyphs" textLength="191" x="12" y="126.6245">Widget(QWidget *parent = nullptr)</text><!--class QWidget--><rect fill="#FEFECE" filter="url(#f12rqjk5tgca7s)" height="48" id="QWidget" style="stroke: #A80036; stroke-width: 1.5;" width="84" x="65.5" y="193"/><ellipse cx="80.5" cy="209" fill="#ADD1B2" rx="11" ry="11" style="stroke: #A80036; stroke-width: 1.0;"/><path d="M82.8438,204.6719 L83.0156,204.75 C83.2344,204.4375 83.4375,204.3438 83.7344,204.3438 C84.0313,204.3438 84.3125,204.4844 84.4688,204.75 C84.5625,204.9063 84.5781,205.0313 84.5781,205.4688 L84.5781,206.8906 C84.5781,207.3125 84.5469,207.5 84.4375,207.6563 C84.2656,207.875 84,208.0156 83.7344,208.0156 C83.5156,208.0156 83.2813,207.9063 83.1406,207.7656 C83,207.6406 82.9688,207.5156 82.9063,207.1094 C82.8125,206.7031 82.6406,206.4844 82.1563,206.2031 C81.6875,205.9531 81.0781,205.7969 80.5,205.7969 C78.7656,205.7969 77.5156,207.1094 77.5156,208.8906 L77.5156,209.9844 C77.5156,211.6875 78.8125,212.7813 80.8594,212.7813 C81.625,212.7813 82.3125,212.6563 82.7344,212.3906 C82.9219,212.2969 82.9219,212.2969 83.375,211.8125 C83.5625,211.625 83.7656,211.5469 83.9844,211.5469 C84.4531,211.5469 84.8438,211.9375 84.8438,212.3906 C84.8438,212.7813 84.5156,213.2344 83.9375,213.6406 C83.1875,214.1875 82.0313,214.4844 80.8125,214.4844 C77.9219,214.4844 75.8125,212.5938 75.8125,210.0156 L75.8125,208.8906 C75.8125,206.1719 77.8125,204.0938 80.4375,204.0938 C81.3125,204.0938 81.9063,204.2344 82.8438,204.6719 Z "/><text fill="#000000" font-family="sans-serif" font-size="12" lengthAdjust="spacingAndGlyphs" textLength="52" x="94.5" y="213.1543">QWidget</text><line style="stroke: #A80036; stroke-width: 1.5;" x1="66.5" x2="148.5" y1="225" y2="225"/><line style="stroke: #A80036; stroke-width: 1.5;" x1="66.5" x2="148.5" y1="233" y2="233"/><!--class Ui_Widget--><rect fill="#FEFECE" filter="url(#f12rqjk5tgca7s)" height="48" id="Ui_Widget" style="stroke: #A80036; stroke-width: 1.5;" width="93" x="235" y="193"/><ellipse cx="250" cy="209" fill="#ADD1B2" rx="11" ry="11" style="stroke: #A80036; stroke-width: 1.0;"/><path d="M252.3438,204.6719 L252.5156,204.75 C252.7344,204.4375 252.9375,204.3438 253.2344,204.3438 C253.5313,204.3438 253.8125,204.4844 253.9688,204.75 C254.0625,204.9063 254.0781,205.0313 254.0781,205.4688 L254.0781,206.8906 C254.0781,207.3125 254.0469,207.5 253.9375,207.6563 C253.7656,207.875 253.5,208.0156 253.2344,208.0156 C253.0156,208.0156 252.7813,207.9063 252.6406,207.7656 C252.5,207.6406 252.4688,207.5156 252.4063,207.1094 C252.3125,206.7031 252.1406,206.4844 251.6563,206.2031 C251.1875,205.9531 250.5781,205.7969 250,205.7969 C248.2656,205.7969 247.0156,207.1094 247.0156,208.8906 L247.0156,209.9844 C247.0156,211.6875 248.3125,212.7813 250.3594,212.7813 C251.125,212.7813 251.8125,212.6563 252.2344,212.3906 C252.4219,212.2969 252.4219,212.2969 252.875,211.8125 C253.0625,211.625 253.2656,211.5469 253.4844,211.5469 C253.9531,211.5469 254.3438,211.9375 254.3438,212.3906 C254.3438,212.7813 254.0156,213.2344 253.4375,213.6406 C252.6875,214.1875 251.5313,214.4844 250.3125,214.4844 C247.4219,214.4844 245.3125,212.5938 245.3125,210.0156 L245.3125,208.8906 C245.3125,206.1719 247.3125,204.0938 249.9375,204.0938 C250.8125,204.0938 251.4063,204.2344 252.3438,204.6719 Z "/><text fill="#000000" font-family="sans-serif" font-size="12" lengthAdjust="spacingAndGlyphs" textLength="61" x="264" y="213.1543">Ui_Widget</text><line style="stroke: #A80036; stroke-width: 1.5;" x1="236" x2="327" y1="225" y2="225"/><line style="stroke: #A80036; stroke-width: 1.5;" x1="236" x2="327" y1="233" y2="233"/><!--reverse link Widget to QWidget--><path d="M107.5,153.2257 C107.5,167.5804 107.5,181.7456 107.5,192.9769 " fill="none" id="Widget&lt;-QWidget" style="stroke: #A80036; stroke-width: 1.0;"/><polygon fill="none" points="100.5001,153.0922,107.5,133.092,114.5,153.0921,100.5001,153.0922" style="stroke: #A80036; stroke-width: 1.0;"/><!--reverse link Ui.Widget to Ui_Widget--><path d="M281.5,128.015 C281.5,149.5541 281.5,174.7019 281.5,192.5828 " fill="none" id="Ui.Widget&lt;-Ui_Widget" style="stroke: #A80036; stroke-width: 1.0;"/><polygon fill="none" points="274.5,127.707,281.5,107.707,288.5,127.707,274.5,127.707" style="stroke: #A80036; stroke-width: 1.0;"/><!--
@startuml
Widget <|- - QWidget

class Widget
{
public:
    Widget(QWidget *parent = nullptr)
private:
    Ui::Widget *ui
}
class Ui_Widget
namespace Ui{
    class Widget
    Widget <|- - .Ui_Widget
}
@enduml

PlantUML version 1.2019.10beta5(Unknown compile time)
(GPL source distribution)
Java Runtime: Java(TM) SE Runtime Environment
JVM: Java HotSpot(TM) 64-Bit Server VM
Java Version: 1.7.0_25-b15
Operating System: Linux
Default Encoding: UTF-8
Language: en
Country: US
--></g></svg>